<svg xmlns="http://www.w3.org/2000/svg" xmlns:xlink="http://www.w3.org/1999/xlink" width="1080" height="720" viewBox="0 0 1080 720"><rect width="100%" height="100%" fill="#DDDDDD"/><path d="M207.19 372.37L201.88 372.37L201.88 350.31L205.13 350.31Q206.16 350.31 206.48 351.28L206.48 351.28L206.83 352.92Q207.41 352.27 208.04 351.73Q208.67 351.20 209.39 350.81Q210.11 350.42 210.94 350.20Q211.77 349.97 212.76 349.97L212.76 349.97Q214.84 349.97 216.19 351.10Q217.53 352.23 218.20 354.10L218.20 354.10Q218.71 353.00 219.49 352.22Q220.26 351.43 221.19 350.94Q222.11 350.44 223.15 350.21Q224.20 349.97 225.25 349.97L225.25 349.97Q227.08 349.97 228.50 350.53Q229.92 351.09 230.88 352.16Q231.85 353.24 232.36 354.79Q232.86 356.33 232.86 358.33L232.86 358.33L232.86 372.37L227.55 372.37L227.55 358.33Q227.55 356.23 226.63 355.16Q225.70 354.10 223.92 354.10L223.92 354.10Q223.10 354.10 222.40 354.38Q221.70 354.66 221.18 355.18Q220.65 355.71 220.35 356.51Q220.05 357.30 220.05 358.33L220.05 358.33L220.05 372.37L214.72 372.37L214.72 358.33Q214.72 356.12 213.82 355.11Q212.93 354.10 211.21 354.10L211.21 354.10Q210.05 354.10 209.05 354.67Q208.05 355.24 207.19 356.23L207.19 356.23L207.19 372.37ZM249.55 366.68L249.55 362.96Q247.25 363.06 245.68 363.35Q244.11 363.64 243.16 364.10Q242.21 364.55 241.81 365.15Q241.40 365.75 241.40 366.46L241.40 366.46Q241.40 367.86 242.23 368.46Q243.05 369.06 244.39 369.06L244.39 369.06Q246.02 369.06 247.21 368.47Q248.41 367.88 249.55 366.68L249.55 366.68ZM238.32 355.09L237.38 353.39Q241.18 349.91 246.54 349.91L246.54 349.91Q248.47 349.91 250.00 350.54Q251.52 351.17 252.58 352.30Q253.63 353.43 254.18 355.00Q254.73 356.57 254.73 358.44L254.73 358.44L254.73 372.37L252.32 372.37Q251.57 372.37 251.16 372.15Q250.75 371.92 250.51 371.23L250.51 371.23L250.04 369.64Q249.20 370.40 248.41 370.97Q247.61 371.53 246.75 371.92Q245.89 372.31 244.91 372.51Q243.93 372.72 242.75 372.72L242.75 372.72Q241.35 372.72 240.17 372.34Q238.99 371.96 238.13 371.21Q237.27 370.46 236.80 369.34Q236.32 368.22 236.32 366.74L236.32 366.74Q236.32 365.90 236.60 365.07Q236.88 364.25 237.52 363.49Q238.15 362.74 239.16 362.07Q240.17 361.41 241.64 360.91Q243.12 360.42 245.07 360.11Q247.03 359.80 249.55 359.73L249.55 359.73L249.55 358.44Q249.55 356.23 248.60 355.16Q247.65 354.10 245.87 354.10L245.87 354.10Q244.58 354.10 243.73 354.40Q242.88 354.70 242.24 355.08Q241.59 355.45 241.06 355.75Q240.54 356.05 239.89 356.05L239.89 356.05Q239.33 356.05 238.95 355.76Q238.56 355.47 238.32 355.09L238.32 355.09ZM265.03 356.76L265.03 366.65Q265.93 367.75 266.99 368.20Q268.06 368.65 269.30 368.65L269.30 368.65Q270.51 368.65 271.48 368.20Q272.44 367.75 273.12 366.83Q273.80 365.90 274.16 364.49Q274.53 363.09 274.53 361.17L274.53 361.17Q274.53 359.24 274.22 357.89Q273.91 356.55 273.32 355.71Q272.74 354.87 271.92 354.49Q271.09 354.10 270.04 354.10L270.04 354.10Q268.38 354.10 267.22 354.80Q266.06 355.50 265.03 356.76L265.03 356.76ZM264.32 351.28L264.75 353.32Q266.10 351.80 267.82 350.85Q269.54 349.91 271.86 349.91L271.86 349.91Q273.67 349.91 275.16 350.66Q276.66 351.41 277.74 352.84Q278.83 354.27 279.42 356.37Q280.01 358.46 280.01 361.17L280.01 361.17Q280.01 363.64 279.34 365.75Q278.68 367.86 277.44 369.41Q276.21 370.95 274.45 371.83Q272.70 372.70 270.53 372.70L270.53 372.70Q268.68 372.70 267.37 372.13Q266.06 371.56 265.03 370.55L265.03 370.55L265.03 379.58L259.72 379.58L259.72 350.31L262.96 350.31Q263.99 350.31 264.32 351.28L264.32 351.28ZM322.04 350.31L326.09 350.31L319.08 372.37L314.82 372.37Q314.09 372.37 313.81 371.43L313.81 371.43L309.85 358.68Q309.66 358.03 309.50 357.40Q309.34 356.76 309.23 356.12L309.23 356.12Q309.10 356.76 308.94 357.42Q308.78 358.08 308.58 358.72L308.58 358.72L304.56 371.43Q304.31 372.37 303.42 372.37L303.42 372.37L299.34 372.37L292.35 350.31L296.59 350.31Q297.17 350.31 297.58 350.59Q297.99 350.87 298.11 351.30L298.11 351.30L301.27 363.09Q301.51 364.05 301.69 364.98Q301.88 365.90 302.01 366.83L302.01 366.83Q302.24 365.90 302.51 364.98Q302.78 364.05 303.08 363.09L303.08 363.09L306.74 351.26Q306.86 350.83 307.24 350.55Q307.62 350.27 308.15 350.27L308.15 350.27L310.50 350.27Q311.06 350.27 311.46 350.55Q311.85 350.83 311.98 351.26L311.98 351.26L315.53 363.09Q315.81 364.05 316.06 364.99Q316.30 365.92 316.54 366.85L316.54 366.85Q316.82 365.02 317.34 363.09L317.34 363.09L320.58 351.30Q320.73 350.87 321.12 350.59Q321.51 350.31 322.04 350.31L322.04 350.31ZM329.27 350.31L334.60 350.31L334.60 372.37L329.27 372.37L329.27 350.31ZM335.33 343.89L335.33 343.89Q335.33 344.57 335.05 345.18Q334.77 345.78 334.31 346.23Q333.85 346.68 333.22 346.95Q332.60 347.22 331.89 347.22L331.89 347.22Q331.20 347.22 330.59 346.95Q329.98 346.68 329.53 346.23Q329.07 345.78 328.81 345.18Q328.54 344.57 328.54 343.89L328.54 343.89Q328.54 343.18 328.81 342.55Q329.07 341.93 329.53 341.48Q329.98 341.03 330.59 340.76Q331.20 340.49 331.89 340.49L331.89 340.49Q332.60 340.49 333.22 340.76Q333.85 341.03 334.31 341.48Q334.77 341.93 335.05 342.55Q335.33 343.18 335.33 343.89ZM347.37 372.72L347.37 372.72Q344.49 372.72 342.95 371.09Q341.42 369.47 341.42 366.61L341.42 366.61L341.42 354.29L339.16 354.29Q338.73 354.29 338.43 354.01Q338.13 353.73 338.13 353.17L338.13 353.17L338.13 351.07L341.67 350.49L342.79 344.47Q342.90 344.04 343.20 343.80Q343.50 343.56 343.97 343.56L343.97 343.56L346.73 343.56L346.73 350.51L352.62 350.51L352.62 354.29L346.73 354.29L346.73 366.25Q346.73 367.28 347.23 367.86Q347.74 368.44 348.62 368.44L348.62 368.44Q349.11 368.44 349.45 368.32Q349.78 368.20 350.03 368.07Q350.27 367.94 350.47 367.83Q350.66 367.71 350.85 367.71L350.85 367.71Q351.09 367.71 351.24 367.83Q351.39 367.94 351.56 368.18L351.56 368.18L353.15 370.76Q351.99 371.73 350.49 372.22Q348.98 372.72 347.37 372.72ZM361.32 340.42L361.32 352.68Q362.61 351.48 364.16 350.72Q365.71 349.97 367.80 349.97L367.80 349.97Q369.60 349.97 371.00 350.58Q372.40 351.20 373.33 352.30Q374.27 353.41 374.75 354.95Q375.23 356.48 375.23 358.33L375.23 358.33L375.23 372.37L369.92 372.37L369.92 358.33Q369.92 356.31 369.00 355.21Q368.08 354.10 366.18 354.10L366.18 354.10Q364.81 354.10 363.60 354.72Q362.40 355.35 361.32 356.42L361.32 356.42L361.32 372.37L356.01 372.37L356.01 340.42L361.32 340.42ZM390.03 349.97L390.03 349.97Q392.48 349.97 394.49 350.77Q396.50 351.56 397.93 353.02Q399.36 354.49 400.13 356.59Q400.91 358.70 400.91 361.30L400.91 361.30Q400.91 363.92 400.13 366.03Q399.36 368.14 397.93 369.62Q396.50 371.10 394.49 371.90Q392.48 372.70 390.03 372.70L390.03 372.70Q387.55 372.70 385.53 371.90Q383.51 371.10 382.08 369.62Q380.65 368.14 379.87 366.03Q379.08 363.92 379.08 361.30L379.08 361.30Q379.08 358.70 379.87 356.59Q380.65 354.49 382.08 353.02Q383.51 351.56 385.53 350.77Q387.55 349.97 390.03 349.97ZM390.03 368.61L390.03 368.61Q392.78 368.61 394.10 366.76Q395.42 364.91 395.42 361.34L395.42 361.34Q395.42 357.77 394.10 355.90Q392.78 354.03 390.03 354.03L390.03 354.03Q387.23 354.03 385.89 355.92Q384.54 357.80 384.54 361.34L384.54 361.34Q384.54 364.89 385.89 366.75Q387.23 368.61 390.03 368.61ZM418.66 350.31L423.98 350.31L423.98 372.37L420.73 372.37Q419.68 372.37 419.40 371.41L419.40 371.41L419.03 369.64Q417.68 371.02 416.04 371.87Q414.41 372.72 412.19 372.72L412.19 372.72Q410.39 372.72 409.00 372.10Q407.61 371.49 406.67 370.37Q405.72 369.26 405.24 367.72Q404.75 366.18 404.75 364.33L404.75 364.33L404.75 350.31L410.06 350.31L410.06 364.33Q410.06 366.35 411.00 367.46Q411.94 368.57 413.81 368.57L413.81 368.57Q415.18 368.57 416.39 367.96Q417.59 367.34 418.66 366.27L418.66 366.27L418.66 350.31ZM436.57 372.72L436.57 372.72Q433.69 372.72 432.16 371.09Q430.62 369.47 430.62 366.61L430.62 366.61L430.62 354.29L428.36 354.29Q427.93 354.29 427.63 354.01Q427.33 353.73 427.33 353.17L427.33 353.17L427.33 351.07L430.88 350.49L431.99 344.47Q432.10 344.04 432.40 343.80Q432.70 343.56 433.18 343.56L433.18 343.56L435.93 343.56L435.93 350.51L441.82 350.51L441.82 354.29L435.93 354.29L435.93 366.25Q435.93 367.28 436.43 367.86Q436.94 368.44 437.82 368.44L437.82 368.44Q438.32 368.44 438.65 368.32Q438.98 368.20 439.23 368.07Q439.48 367.94 439.67 367.83Q439.86 367.71 440.06 367.71L440.06 367.71Q440.29 367.71 440.44 367.83Q440.59 367.94 440.77 368.18L440.77 368.18L442.36 370.76Q441.20 371.73 439.69 372.22Q438.19 372.72 436.57 372.72ZM460.98 340.42L460.98 352.68Q462.27 351.48 463.81 350.72Q465.36 349.97 467.45 349.97L467.45 349.97Q469.25 349.97 470.65 350.58Q472.05 351.20 472.98 352.30Q473.92 353.41 474.40 354.95Q474.89 356.48 474.89 358.33L474.89 358.33L474.89 372.37L469.58 372.37L469.58 358.33Q469.58 356.31 468.65 355.21Q467.73 354.10 465.84 354.10L465.84 354.10Q464.46 354.10 463.26 354.72Q462.05 355.35 460.98 356.42L460.98 356.42L460.98 372.37L455.67 372.37L455.67 340.42L460.98 340.42ZM484.11 358.81L494.13 358.81Q494.13 357.77 493.84 356.86Q493.55 355.95 492.97 355.26Q492.39 354.57 491.50 354.17Q490.60 353.78 489.42 353.78L489.42 353.78Q487.12 353.78 485.80 355.09Q484.48 356.40 484.11 358.81L484.11 358.81ZM497.66 362.01L484.00 362.01Q484.13 363.71 484.61 364.95Q485.08 366.18 485.85 366.99Q486.63 367.79 487.69 368.19Q488.75 368.59 490.04 368.59L490.04 368.59Q491.33 368.59 492.27 368.29Q493.21 367.99 493.90 367.62Q494.60 367.26 495.13 366.96Q495.66 366.65 496.15 366.65L496.15 366.65Q496.82 366.65 497.14 367.15L497.14 367.15L498.67 369.08Q497.78 370.12 496.69 370.81Q495.59 371.51 494.40 371.93Q493.21 372.35 491.97 372.52Q490.73 372.70 489.57 372.70L489.57 372.70Q487.27 372.70 485.29 371.93Q483.32 371.17 481.85 369.68Q480.39 368.18 479.55 365.98Q478.71 363.77 478.71 360.87L478.71 360.87Q478.71 358.61 479.45 356.62Q480.18 354.64 481.54 353.16Q482.91 351.69 484.87 350.83Q486.84 349.97 489.31 349.97L489.31 349.97Q491.40 349.97 493.16 350.64Q494.93 351.30 496.19 352.58Q497.46 353.86 498.18 355.72Q498.90 357.58 498.90 359.97L498.90 359.97Q498.90 361.17 498.64 361.59Q498.39 362.01 497.66 362.01L497.66 362.01ZM514.53 366.68L514.53 362.96Q512.23 363.06 510.66 363.35Q509.09 363.64 508.15 364.10Q507.20 364.55 506.79 365.15Q506.38 365.75 506.38 366.46L506.38 366.46Q506.38 367.86 507.21 368.46Q508.04 369.06 509.37 369.06L509.37 369.06Q511.01 369.06 512.20 368.47Q513.39 367.88 514.53 366.68L514.53 366.68ZM503.31 355.09L502.36 353.39Q506.17 349.91 511.52 349.91L511.52 349.91Q513.46 349.91 514.98 350.54Q516.51 351.17 517.56 352.30Q518.62 353.43 519.17 355.00Q519.71 356.57 519.71 358.44L519.71 358.44L519.71 372.37L517.31 372.37Q516.55 372.37 516.15 372.15Q515.74 371.92 515.50 371.23L515.50 371.23L515.03 369.64Q514.19 370.40 513.39 370.97Q512.60 371.53 511.74 371.92Q510.88 372.31 509.90 372.51Q508.92 372.72 507.74 372.72L507.74 372.72Q506.34 372.72 505.16 372.34Q503.98 371.96 503.12 371.21Q502.26 370.46 501.78 369.34Q501.31 368.22 501.31 366.74L501.31 366.74Q501.31 365.90 501.59 365.07Q501.87 364.25 502.50 363.49Q503.14 362.74 504.15 362.07Q505.16 361.41 506.63 360.91Q508.10 360.42 510.06 360.11Q512.02 359.80 514.53 359.73L514.53 359.73L514.53 358.44Q514.53 356.23 513.59 355.16Q512.64 354.10 510.86 354.10L510.86 354.10Q509.57 354.10 508.72 354.40Q507.87 354.70 507.22 355.08Q506.58 355.45 506.05 355.75Q505.52 356.05 504.88 356.05L504.88 356.05Q504.32 356.05 503.93 355.76Q503.55 355.47 503.31 355.09L503.31 355.09ZM532.06 372.72L532.06 372.72Q529.17 372.72 527.64 371.09Q526.10 369.47 526.10 366.61L526.10 366.61L526.10 354.29L523.84 354.29Q523.41 354.29 523.11 354.01Q522.81 353.73 522.81 353.17L522.81 353.17L522.81 351.07L526.36 350.49L527.48 344.47Q527.58 344.04 527.88 343.80Q528.19 343.56 528.66 343.56L528.66 343.56L531.41 343.56L531.41 350.51L537.30 350.51L537.30 354.29L531.41 354.29L531.41 366.25Q531.41 367.28 531.92 367.86Q532.42 368.44 533.30 368.44L533.30 368.44Q533.80 368.44 534.13 368.32Q534.46 368.20 534.71 368.07Q534.96 367.94 535.15 367.83Q535.35 367.71 535.54 367.71L535.54 367.71Q535.78 367.71 535.93 367.83Q536.08 367.94 536.25 368.18L536.25 368.18L537.84 370.76Q536.68 371.73 535.17 372.22Q533.67 372.72 532.06 372.72ZM546.01 372.37L540.70 372.37L540.70 350.31L543.95 350.31Q544.98 350.31 545.30 351.28L545.30 351.28L545.64 352.92Q546.22 352.27 546.86 351.73Q547.49 351.20 548.21 350.81Q548.93 350.42 549.76 350.20Q550.59 349.97 551.58 349.97L551.58 349.97Q553.66 349.97 555.01 351.10Q556.35 352.23 557.02 354.10L557.02 354.10Q557.53 353.00 558.31 352.22Q559.08 351.43 560.01 350.94Q560.93 350.44 561.97 350.21Q563.02 349.97 564.07 349.97L564.07 349.97Q565.90 349.97 567.32 350.53Q568.73 351.09 569.70 352.16Q570.67 353.24 571.18 354.79Q571.68 356.33 571.68 358.33L571.68 358.33L571.68 372.37L566.37 372.37L566.37 358.33Q566.37 356.23 565.45 355.16Q564.52 354.10 562.74 354.10L562.74 354.10Q561.92 354.10 561.22 354.38Q560.52 354.66 560.00 355.18Q559.47 355.71 559.17 356.51Q558.87 357.30 558.87 358.33L558.87 358.33L558.87 372.37L553.53 372.37L553.53 358.33Q553.53 356.12 552.64 355.11Q551.75 354.10 550.03 354.10L550.03 354.10Q548.87 354.10 547.87 354.67Q546.87 355.24 546.01 356.23L546.01 356.23L546.01 372.37ZM588.36 366.68L588.36 362.96Q586.06 363.06 584.49 363.35Q582.92 363.64 581.98 364.10Q581.03 364.55 580.62 365.15Q580.22 365.75 580.22 366.46L580.22 366.46Q580.22 367.86 581.04 368.46Q581.87 369.06 583.20 369.06L583.20 369.06Q584.84 369.06 586.03 368.47Q587.22 367.88 588.36 366.68L588.36 366.68ZM577.14 355.09L576.20 353.39Q580.00 349.91 585.35 349.91L585.35 349.91Q587.29 349.91 588.82 350.54Q590.34 351.17 591.40 352.30Q592.45 353.43 593.00 355.00Q593.55 356.57 593.55 358.44L593.55 358.44L593.55 372.37L591.14 372.37Q590.39 372.37 589.98 372.15Q589.57 371.92 589.33 371.23L589.33 371.23L588.86 369.64Q588.02 370.40 587.22 370.97Q586.43 371.53 585.57 371.92Q584.71 372.31 583.73 372.51Q582.75 372.72 581.57 372.72L581.57 372.72Q580.17 372.72 578.99 372.34Q577.81 371.96 576.95 371.21Q576.09 370.46 575.61 369.34Q575.14 368.22 575.14 366.74L575.14 366.74Q575.14 365.90 575.42 365.07Q575.70 364.25 576.34 363.49Q576.97 362.74 577.98 362.07Q578.99 361.41 580.46 360.91Q581.94 360.42 583.89 360.11Q585.85 359.80 588.36 359.73L588.36 359.73L588.36 358.44Q588.36 356.23 587.42 355.16Q586.47 354.10 584.69 354.10L584.69 354.10Q583.40 354.10 582.55 354.40Q581.70 354.70 581.05 355.08Q580.41 355.45 579.88 355.75Q579.36 356.05 578.71 356.05L578.71 356.05Q578.15 356.05 577.76 355.76Q577.38 355.47 577.14 355.09L577.14 355.09ZM603.84 356.76L603.84 366.65Q604.75 367.75 605.81 368.20Q606.88 368.65 608.12 368.65L608.12 368.65Q609.33 368.65 610.29 368.20Q611.26 367.75 611.94 366.83Q612.62 365.90 612.98 364.49Q613.35 363.09 613.35 361.17L613.35 361.17Q613.35 359.24 613.04 357.89Q612.72 356.55 612.14 355.71Q611.56 354.87 610.74 354.49Q609.91 354.10 608.85 354.10L608.85 354.10Q607.20 354.10 606.04 354.80Q604.88 355.50 603.84 356.76L603.84 356.76ZM603.13 351.28L603.56 353.32Q604.92 351.80 606.64 350.85Q608.36 349.91 610.68 349.91L610.68 349.91Q612.49 349.91 613.98 350.66Q615.48 351.41 616.56 352.84Q617.65 354.27 618.24 356.37Q618.83 358.46 618.83 361.17L618.83 361.17Q618.83 363.64 618.16 365.75Q617.50 367.86 616.26 369.41Q615.02 370.95 613.27 371.83Q611.52 372.70 609.35 372.70L609.35 372.70Q607.50 372.70 606.19 372.13Q604.88 371.56 603.84 370.55L603.84 370.55L603.84 379.58L598.53 379.58L598.53 350.31L601.78 350.31Q602.81 350.31 603.13 351.28L603.13 351.28ZM637.62 352.70L636.42 354.61Q636.20 354.96 635.97 355.10Q635.73 355.24 635.36 355.24L635.36 355.24Q634.98 355.24 634.54 355.02Q634.09 354.81 633.51 354.54Q632.93 354.27 632.19 354.06Q631.45 353.84 630.44 353.84L630.44 353.84Q628.87 353.84 627.98 354.51Q627.09 355.17 627.09 356.25L627.09 356.25Q627.09 356.96 627.55 357.44Q628.01 357.93 628.77 358.29Q629.54 358.66 630.50 358.95Q631.47 359.24 632.47 359.58Q633.47 359.92 634.44 360.37Q635.41 360.81 636.17 361.48Q636.93 362.16 637.40 363.11Q637.86 364.05 637.86 365.39L637.86 365.39Q637.86 366.98 637.29 368.32Q636.72 369.66 635.60 370.64Q634.48 371.62 632.84 372.17Q631.19 372.72 629.04 372.72L629.04 372.72Q627.90 372.72 626.82 372.51Q625.73 372.31 624.73 371.94Q623.73 371.58 622.88 371.08Q622.03 370.59 621.39 370.01L621.39 370.01L622.61 367.99Q622.85 367.62 623.17 367.43Q623.50 367.23 623.99 367.23L623.99 367.23Q624.48 367.23 624.93 367.51Q625.37 367.79 625.95 368.12Q626.53 368.44 627.31 368.72Q628.10 369.00 629.30 369.00L629.30 369.00Q630.25 369.00 630.92 368.77Q631.60 368.55 632.04 368.18Q632.48 367.82 632.69 367.33Q632.89 366.85 632.89 366.33L632.89 366.33Q632.89 365.56 632.43 365.06Q631.97 364.57 631.20 364.20Q630.44 363.84 629.46 363.55Q628.48 363.26 627.46 362.91Q626.44 362.57 625.46 362.11Q624.48 361.64 623.72 360.94Q622.96 360.23 622.50 359.19Q622.03 358.16 622.03 356.70L622.03 356.70Q622.03 355.35 622.57 354.12Q623.11 352.89 624.15 351.98Q625.19 351.07 626.75 350.52Q628.31 349.97 630.35 349.97L630.35 349.97Q632.63 349.97 634.50 350.72Q636.37 351.48 637.62 352.70L637.62 352.70ZM663.96 366.68L663.96 362.96Q661.66 363.06 660.09 363.35Q658.52 363.64 657.57 364.10Q656.63 364.55 656.22 365.15Q655.81 365.75 655.81 366.46L655.81 366.46Q655.81 367.86 656.64 368.46Q657.47 369.06 658.80 369.06L658.80 369.06Q660.43 369.06 661.63 368.47Q662.82 367.88 663.96 366.68L663.96 366.68ZM652.74 355.09L651.79 353.39Q655.59 349.91 660.95 349.91L660.95 349.91Q662.88 349.91 664.41 350.54Q665.94 351.17 666.99 352.30Q668.04 353.43 668.59 355.00Q669.14 356.57 669.14 358.44L669.14 358.44L669.14 372.37L666.73 372.37Q665.98 372.37 665.57 372.15Q665.16 371.92 664.93 371.23L664.93 371.23L664.45 369.64Q663.61 370.40 662.82 370.97Q662.02 371.53 661.16 371.92Q660.30 372.31 659.33 372.51Q658.35 372.72 657.16 372.72L657.16 372.72Q655.77 372.72 654.58 372.34Q653.40 371.96 652.54 371.21Q651.68 370.46 651.21 369.34Q650.74 368.22 650.74 366.74L650.74 366.74Q650.74 365.90 651.02 365.07Q651.29 364.25 651.93 363.49Q652.56 362.74 653.57 362.07Q654.58 361.41 656.06 360.91Q657.53 360.42 659.49 360.11Q661.44 359.80 663.96 359.73L663.96 359.73L663.96 358.44Q663.96 356.23 663.01 355.16Q662.07 354.10 660.28 354.10L660.28 354.10Q658.99 354.10 658.14 354.40Q657.29 354.70 656.65 355.08Q656.00 355.45 655.48 355.75Q654.95 356.05 654.30 356.05L654.30 356.05Q653.75 356.05 653.36 355.76Q652.97 355.47 652.74 355.09L652.74 355.09ZM678.73 351.28L679.09 353.02Q679.76 352.36 680.50 351.79Q681.24 351.22 682.07 350.82Q682.90 350.42 683.85 350.20Q684.79 349.97 685.91 349.97L685.91 349.97Q687.72 349.97 689.11 350.58Q690.51 351.20 691.45 352.30Q692.38 353.41 692.87 354.95Q693.35 356.48 693.35 358.33L693.35 358.33L693.35 372.37L688.04 372.37L688.04 358.33Q688.04 356.31 687.11 355.21Q686.19 354.10 684.30 354.10L684.30 354.10Q682.92 354.10 681.72 354.72Q680.51 355.35 679.44 356.42L679.44 356.42L679.44 372.37L674.13 372.37L674.13 350.31L677.37 350.31Q678.41 350.31 678.73 351.28L678.73 351.28ZM712.23 365.84L712.23 355.95Q711.32 354.85 710.26 354.40Q709.19 353.95 707.97 353.95L707.97 353.95Q706.76 353.95 705.80 354.40Q704.83 354.85 704.14 355.76Q703.45 356.68 703.09 358.09Q702.72 359.49 702.72 361.41L702.72 361.41Q702.72 363.34 703.03 364.69Q703.35 366.03 703.93 366.88Q704.51 367.73 705.35 368.11Q706.18 368.48 707.22 368.48L707.22 368.48Q708.87 368.48 710.03 367.79Q711.19 367.11 712.23 365.84L712.23 365.84ZM712.23 340.42L717.54 340.42L717.54 372.37L714.29 372.37Q713.24 372.37 712.96 371.41L712.96 371.41L712.51 369.28Q711.17 370.80 709.44 371.75Q707.71 372.70 705.41 372.70L705.41 372.70Q703.60 372.70 702.10 371.94Q700.59 371.19 699.51 369.76Q698.42 368.33 697.83 366.22Q697.24 364.12 697.24 361.41L697.24 361.41Q697.24 358.96 697.91 356.85Q698.57 354.74 699.82 353.20Q701.07 351.65 702.81 350.78Q704.55 349.91 706.72 349.91L706.72 349.91Q708.57 349.91 709.88 350.49Q711.19 351.07 712.23 352.06L712.23 352.06L712.23 340.42ZM742.99 349.97L742.99 349.97Q745.44 349.97 747.45 350.77Q749.46 351.56 750.89 353.02Q752.32 354.49 753.10 356.59Q753.87 358.70 753.87 361.30L753.87 361.30Q753.87 363.92 753.10 366.03Q752.32 368.14 750.89 369.62Q749.46 371.10 747.45 371.90Q745.44 372.70 742.99 372.70L742.99 372.70Q740.52 372.70 738.50 371.90Q736.48 371.10 735.05 369.62Q733.62 368.14 732.83 366.03Q732.05 363.92 732.05 361.30L732.05 361.30Q732.05 358.70 732.83 356.59Q733.62 354.49 735.05 353.02Q736.48 351.56 738.50 350.77Q740.52 349.97 742.99 349.97ZM742.99 368.61L742.99 368.61Q745.74 368.61 747.07 366.76Q748.39 364.91 748.39 361.34L748.39 361.34Q748.39 357.77 747.07 355.90Q745.74 354.03 742.99 354.03L742.99 354.03Q740.20 354.03 738.85 355.92Q737.51 357.80 737.51 361.34L737.51 361.34Q737.51 364.89 738.85 366.75Q740.20 368.61 742.99 368.61ZM765.29 372.72L765.29 372.72Q762.41 372.72 760.87 371.09Q759.33 369.47 759.33 366.61L759.33 366.61L759.33 354.29L757.07 354.29Q756.64 354.29 756.34 354.01Q756.04 353.73 756.04 353.17L756.04 353.17L756.04 351.07L759.59 350.49L760.71 344.47Q760.82 344.04 761.12 343.80Q761.42 343.56 761.89 343.56L761.89 343.56L764.64 343.56L764.64 350.51L770.53 350.51L770.53 354.29L764.64 354.29L764.64 366.25Q764.64 367.28 765.15 367.86Q765.65 368.44 766.53 368.44L766.53 368.44Q767.03 368.44 767.36 368.32Q767.70 368.20 767.94 368.07Q768.19 367.94 768.38 367.83Q768.58 367.71 768.77 367.71L768.77 367.71Q769.01 367.71 769.16 367.83Q769.31 367.94 769.48 368.18L769.48 368.18L771.07 370.76Q769.91 371.73 768.41 372.22Q766.90 372.72 765.29 372.72ZM779.24 340.42L779.24 352.68Q780.53 351.48 782.08 350.72Q783.63 349.97 785.71 349.97L785.71 349.97Q787.52 349.97 788.92 350.58Q790.31 351.20 791.25 352.30Q792.18 353.41 792.67 354.95Q793.15 356.48 793.15 358.33L793.15 358.33L793.15 372.37L787.84 372.37L787.84 358.33Q787.84 356.31 786.92 355.21Q785.99 354.10 784.10 354.10L784.10 354.10Q782.72 354.10 781.52 354.72Q780.32 355.35 779.24 356.42L779.24 356.42L779.24 372.37L773.93 372.37L773.93 340.42L779.24 340.42ZM802.38 358.81L812.39 358.81Q812.39 357.77 812.10 356.86Q811.81 355.95 811.23 355.26Q810.65 354.57 809.76 354.17Q808.87 353.78 807.69 353.78L807.69 353.78Q805.39 353.78 804.06 355.09Q802.74 356.40 802.38 358.81L802.38 358.81ZM815.92 362.01L802.27 362.01Q802.40 363.71 802.87 364.95Q803.34 366.18 804.12 366.99Q804.89 367.79 805.96 368.19Q807.02 368.59 808.31 368.59L808.31 368.59Q809.60 368.59 810.53 368.29Q811.47 367.99 812.17 367.62Q812.87 367.26 813.39 366.96Q813.92 366.65 814.42 366.65L814.42 366.65Q815.08 366.65 815.40 367.15L815.40 367.15L816.93 369.08Q816.05 370.12 814.95 370.81Q813.86 371.51 812.66 371.93Q811.47 372.35 810.23 372.52Q809.00 372.70 807.84 372.70L807.84 372.70Q805.54 372.70 803.56 371.93Q801.58 371.17 800.12 369.68Q798.66 368.18 797.82 365.98Q796.98 363.77 796.98 360.87L796.98 360.87Q796.98 358.61 797.71 356.62Q798.44 354.64 799.81 353.16Q801.17 351.69 803.14 350.83Q805.11 349.97 807.58 349.97L807.58 349.97Q809.66 349.97 811.43 350.64Q813.19 351.30 814.46 352.58Q815.73 353.86 816.45 355.72Q817.17 357.58 817.17 359.97L817.17 359.97Q817.17 361.17 816.91 361.59Q816.65 362.01 815.92 362.01L815.92 362.01ZM825.83 351.65L826.15 354.14Q827.19 352.16 828.61 351.03Q830.02 349.91 831.96 349.91L831.96 349.91Q833.49 349.91 834.41 350.57L834.41 350.57L834.07 354.55Q833.96 354.94 833.75 355.10Q833.55 355.26 833.21 355.26L833.21 355.26Q832.88 355.26 832.25 355.15Q831.62 355.04 831.01 355.04L831.01 355.04Q830.13 355.04 829.44 355.30Q828.76 355.56 828.21 356.04Q827.66 356.53 827.24 357.22Q826.82 357.90 826.46 358.79L826.46 358.79L826.46 372.37L821.14 372.37L821.14 350.31L824.26 350.31Q825.08 350.31 825.40 350.60Q825.72 350.89 825.83 351.65L825.83 351.65ZM861.33 350.31L866.64 350.31L866.64 372.37L863.39 372.37Q862.34 372.37 862.06 371.41L862.06 371.41L861.69 369.64Q860.34 371.02 858.71 371.87Q857.07 372.72 854.86 372.72L854.86 372.72Q853.05 372.72 851.66 372.10Q850.28 371.49 849.33 370.37Q848.39 369.26 847.90 367.72Q847.42 366.18 847.42 364.33L847.42 364.33L847.42 350.31L852.73 350.31L852.73 364.33Q852.73 366.35 853.66 367.46Q854.60 368.57 856.47 368.57L856.47 368.57Q857.85 368.57 859.05 367.96Q860.25 367.34 861.33 366.27L861.33 366.27L861.33 350.31ZM872.06 350.31L877.39 350.31L877.39 372.37L872.06 372.37L872.06 350.31ZM878.12 343.89L878.12 343.89Q878.12 344.57 877.84 345.18Q877.56 345.78 877.10 346.23Q876.64 346.68 876.01 346.95Q875.39 347.22 874.68 347.22L874.68 347.22Q873.99 347.22 873.38 346.95Q872.77 346.68 872.31 346.23Q871.86 345.78 871.59 345.18Q871.33 344.57 871.33 343.89L871.33 343.89Q871.33 343.18 871.59 342.55Q871.86 341.93 872.31 341.48Q872.77 341.03 873.38 340.76Q873.99 340.49 874.68 340.49L874.68 340.49Q875.39 340.49 876.01 340.76Q876.64 341.03 877.10 341.48Q877.56 341.93 877.84 342.55Q878.12 343.18 878.12 343.89Z" fill="#999999"/></svg>